<svg width="22" height="22" viewBox="0 0 22 22" fill="none" xmlns="http://www.w3.org/2000/svg">
<path d="M11 1C9.02219 1 7.08879 1.58649 5.4443 2.6853C3.79981 3.78412 2.51809 5.3459 1.76121 7.17316C1.00433 9.00042 0.8063 11.0111 1.19215 12.9509C1.578 14.8907 2.53041 16.6725 3.92894 18.0711C5.32746 19.4696 7.10929 20.422 9.0491 20.8078C10.9889 21.1937 12.9996 20.9957 14.8268 20.2388C16.6541 19.4819 18.2159 18.2002 19.3147 16.5557C20.4135 14.9112 21 12.9778 21 11C20.9973 8.34866 19.9429 5.8067 18.0681 3.93192C16.1933 2.05714 13.6513 1.0027 11 1ZM11 20.4891C9.12323 20.4891 7.2886 19.9326 5.72812 18.8899C4.16764 17.8473 2.95139 16.3652 2.23318 14.6313C1.51497 12.8974 1.32705 10.9895 1.69319 9.14876C2.05933 7.30804 2.96309 5.61724 4.29017 4.29016C5.61725 2.96308 7.30805 2.05933 9.14876 1.69319C10.9895 1.32705 12.8974 1.51496 14.6313 2.23317C16.3653 2.95138 17.8473 4.16763 18.8899 5.72811C19.9326 7.28859 20.4891 9.12322 20.4891 11C20.4864 13.5158 19.4858 15.9279 17.7069 17.7068C15.9279 19.4858 13.5158 20.4864 11 20.4891Z" fill="#722F37" stroke="#722F37"/>
<path d="M9.82259 13.286L6.88261 10.346L6.52246 10.7087L9.82259 14.0088L15.4778 8.35112L15.1176 7.99097L9.82259 13.286Z" fill="#722F37" stroke="#722F37"/>
</svg>
