<svg width="25" height="23" viewBox="0 0 25 23" fill="none" xmlns="http://www.w3.org/2000/svg">
<path d="M15.0109 2.09258C13.4281 0.386507 10.7287 0.386506 9.146 2.09257L0 11.9512H3.45098V21.363C3.45098 22.2258 4.15686 22.9316 5.01961 22.9316H9.72549V16.5787H14.5882V22.9316H19.1373C20 22.9316 20.7059 22.2258 20.7059 21.363V11.9512H24.1569L15.0109 2.09258ZM15.9216 21.363V16.6571C15.9216 15.7944 15.2157 15.1669 14.4314 15.1669H9.72549C8.86274 15.1669 8.23529 15.8728 8.23529 16.6571V21.363H5.01961V11.9512H19.1373V21.363H15.9216ZM3.76471 10.3042L8.41675 5.30105C10.3945 3.17401 13.7623 3.174 15.7401 5.30105L20.3922 10.3042H3.76471Z" fill="#722F37"/>
</svg>
